<?xml version="1.0" encoding="iso-8859-1"?>
<!-- Generator: Adobe Illustrator 19.0.0, SVG Export Plug-In . SVG Version: 6.00 Build 0)  -->
<svg version="1.1" id="Layer_1" xmlns="http://www.w3.org/2000/svg" xmlns:xlink="http://www.w3.org/1999/xlink" x="0px" y="0px"
	 viewBox="0 0 460 460" style="enable-background:new 0 0 460 460;" xml:space="preserve">
<g id="XMLID_2834_">
	<path id="XMLID_923_" style="fill:#BFBCA5;" d="M415,0L415,0c-24.853,0-45,20.147-45,45v243.492c0,0.833-0.675,1.508-1.508,1.508
		l0,0c-0.693,0-1.289-0.474-1.457-1.146c-4.569-18.35-14.291-35.202-28.261-48.437L180,90H90v370h280h45c24.853,0,45-20.147,45-45
		V45C460,20.147,439.853,0,415,0z"/>
	<path id="XMLID_824_" style="fill:#C9C6B5;" d="M400,2.571V460h-30V288.492V45C370,25.408,382.524,8.75,400,2.571z"/>
	<path id="XMLID_2305_" style="fill:#595852;" d="M370,340h90v60h-90V340z"/>
	<path id="XMLID_2269_" style="fill:#595852;" d="M370,280h90v-60h-90V280z"/>
	<path id="XMLID_2268_" style="fill:#595852;" d="M370,100v60h90v-60H370z"/>
	<path id="XMLID_805_" style="fill:#595852;" d="M414.717,0L414.717,0C391.555,0,372.488,17.501,370,40h89.434
		C456.946,17.501,437.879,0,414.717,0z"/>
	<path id="XMLID_2246_" style="fill:#60605D;" d="M370,340h30v60h-30V340z"/>
	<path id="XMLID_2237_" style="fill:#60605D;" d="M370,280h30v-60h-30V280z"/>
	<path id="XMLID_2236_" style="fill:#60605D;" d="M370,160h30v-60h-30V160z"/>
	<path id="XMLID_832_" style="fill:#60605D;" d="M370,40h30V2.468C383.891,8.043,371.935,22.509,370,40z"/>
	<path id="XMLID_843_" style="fill:#848177;" d="M125.649,278.72L110,400h70v60H10c-5.523,0-10-4.477-10-10
		c0-27.614,22.386-50,50-50l0,0L90,90h60h30v140c0,22.091-17.909,40-40,40h-4.433C130.539,270,126.292,273.733,125.649,278.72z"/>
	<path id="XMLID_833_" style="fill:#999787;" d="M370,340v120H230H60c-5.523,0-10-4.477-10-10c0-27.614,22.386-50,50-50h120.555
		c5.132,0,9.374-3.891,9.945-8.991C234.968,351.059,268.857,320,310,320h40C361.046,320,370,328.954,370,340z"/>
	<path id="XMLID_922_" style="fill:#A5A293;" d="M340,370v40c0,11.046-8.954,20-20,20h-40c-11.046,0-20-8.954-20-20l0,0
		c0-33.137,26.863-60,60-60l0,0C331.046,350,340,358.954,340,370z"/>
	<path id="XMLID_806_" style="fill:#EEEBC9;" d="M150.911,330.819l1.766-13.689c1.442-11.172,8.475-20.867,18.692-25.61
		c23.966-11.124,40.626-35.42,40.626-63.535V127.853c0-2.269,1.631-3.867,3.527-4.228l123.281,116.793
		c13.747,13.024,23.37,29.556,28.028,47.566h-54.836c-43.042,0-80.728,24.727-98.748,61.392
		c-5.574,11.342-17.021,18.608-29.659,18.608l0,0C163.718,367.984,148.368,350.527,150.911,330.819z"/>
	<path id="XMLID_828_" style="fill:#9E9B8D;" d="M220.188,127.943l-14.061,43.423c-6.098,18.833-20.295,34.523-39.267,43.579
		l-6.754,6.754c-4.419,4.418-9.637,7.737-15.525,9.875c-4.524,1.918-9.539,2.928-14.581,2.928c-5.041,0-10.056-1.01-14.581-2.928
		c-5.887-2.138-11.105-5.456-15.522-9.873l-6.756-6.756c-6.537-3.12-12.489-7.044-17.756-11.596L90.032,89.833h59.953h29.976l0,0
		L220.188,127.943z"/>
	<path id="XMLID_831_" style="fill:#6B6862;" d="M180,90.245v116.917c-4.119,3.065-8.592,5.768-13.37,8.048l-6.759,6.759
		c-4.423,4.422-9.645,7.743-15.537,9.882c-4.528,1.92-9.547,2.931-14.592,2.931s-10.064-1.011-14.593-2.931
		c-5.892-2.14-11.114-5.46-15.535-9.88l-6.761-6.761c-6.447-3.077-12.323-6.939-17.537-11.411L90,90h59.742H150h29.742l0,0
		L180,90.245z"/>
	<path id="XMLID_931_" style="fill:#BFBCA5;" d="M260,13.304v15.217c0,15.464-12.536,28-28,28h-9.574l-35.267,108.914
		c-7.292,22.518-30.617,38.043-57.159,38.043l0,0c-26.542,0-49.868-15.525-57.159-38.043L37.574,56.521H28
		c-15.464,0-28-12.536-28-28V13.304c0-1.104,0.895-2,2-2h31.913C33.913,5.061,76.933,0,130,0s96.087,5.061,96.087,11.304H258
		C259.105,11.304,260,12.2,260,13.304z"/>
	<path id="XMLID_961_" style="fill:#EEEBC9;" d="M208.554,99.363l-21.395,66.072c-7.292,22.518-30.617,38.043-57.159,38.043l0,0
		c-26.542,0-49.868-15.525-57.159-38.043L51.446,99.363C44.078,76.61,55.617,51.829,77.972,43.33
		C93.904,37.273,111.5,33.913,130,33.913s36.096,3.36,52.028,9.417C204.383,51.829,215.922,76.61,208.554,99.363z"/>
	<path id="XMLID_966_" style="fill:#BFBCA5;" d="M157.858,197.362c-8.38,3.927-17.892,6.116-27.858,6.116l0,0
		c-9.966,0-19.478-2.189-27.858-6.116c-21.683-10.16-27.927-38.634-11.731-56.272c0.441-0.48,0.895-0.954,1.363-1.421l17.692-17.692
		c11.341-11.341,29.729-11.341,41.071,0l17.692,17.692c0.468,0.467,0.922,0.941,1.362,1.421
		C185.785,158.728,179.542,187.202,157.858,197.362z"/>
	<path id="XMLID_959_" style="fill:#3D3C3A;" d="M159.76,194.055l-13.773,13.773c-8.829,8.829-23.144,8.829-31.974,0l-13.773-13.773
		c-19.289-19.289-9.096-52.439,17.742-57.323c3.897-0.709,7.919-1.079,12.017-1.079l0,0c4.098,0,8.12,0.37,12.017,1.079
		C168.855,141.615,179.049,174.766,159.76,194.055z"/>
	<path id="XMLID_921_" style="fill:#494848;" d="M156.057,142.769c-0.008,1.472-0.156,2.974-0.502,4.472l-12.423,53.861
		c-1.517,6.579-5.245,11.427-9.75,13.068c-2.244,0.338-4.523,0.338-6.767,0c-4.505-1.641-8.232-6.49-9.75-13.068l-12.423-53.861
		c-0.345-1.498-0.494-3-0.502-4.473c3.944-2.92,8.649-5.056,14.04-6.037c3.897-0.709,7.919-1.079,12.017-1.079l0,0
		c4.098,0,8.12,0.37,12.017,1.079C147.408,137.713,152.114,139.848,156.057,142.769z"/>
	<path id="XMLID_927_" style="fill:#4F4D4D;" d="M136.803,212.168c-1.067,0.87-2.214,1.546-3.42,1.985
		c-2.244,0.338-4.523,0.338-6.767,0c-4.505-1.641-8.232-6.49-9.75-13.068l-12.423-53.861c-0.345-1.498-0.494-3.007-0.502-4.479
		c3.944-2.92,8.649-5.049,14.04-6.03c0.452-0.082,0.912-0.144,1.368-0.217L136.803,212.168z"/>
	<path id="XMLID_926_" style="fill:#282826;" d="M130,214.783c-5.959,0-11.249-2.88-13.133-7.15l-1.155-2.616
		c-2.669-6.048,1.76-12.843,8.37-12.843h11.835c6.61,0,11.039,6.795,8.37,12.843l-1.155,2.616
		C141.249,211.903,135.959,214.783,130,214.783z"/>
	<path id="XMLID_823_" style="fill:#595852;" d="M124.348,84.783c0,15.608-12.653,28.261-28.261,28.261
		s-28.261-12.653-28.261-28.261s12.653-28.261,28.261-28.261C111.695,56.521,124.348,69.175,124.348,84.783z"/>
	<path id="XMLID_2066_" style="fill:#CB6E30;" d="M113.043,84.783c0,9.365-7.592,16.957-16.957,16.957S79.13,94.147,79.13,84.783
		s7.592-16.957,16.957-16.957S113.043,75.418,113.043,84.783z"/>
	<path id="XMLID_2057_" style="fill:#3A2D26;" d="M101.739,84.783c0,3.122-2.531,5.652-5.652,5.652
		c-3.122,0-5.652-2.531-5.652-5.652s2.531-5.652,5.652-5.652C99.209,79.13,101.739,81.661,101.739,84.783z"/>
	<path id="XMLID_2092_" style="fill:#595852;" d="M163.913,56.521c-15.608,0-28.261,12.653-28.261,28.261
		s12.653,28.261,28.261,28.261s28.261-12.653,28.261-28.261S179.521,56.521,163.913,56.521z"/>
	<path id="XMLID_2090_" style="fill:#CB6E30;" d="M163.913,67.826c-9.365,0-16.957,7.592-16.957,16.957s7.592,16.957,16.957,16.957
		s16.957-7.592,16.957-16.957S173.278,67.826,163.913,67.826z"/>
	<path id="XMLID_2058_" style="fill:#3A2D26;" d="M163.913,79.13c-3.122,0-5.652,2.531-5.652,5.652s2.531,5.652,5.652,5.652
		s5.652-2.531,5.652-5.652S167.035,79.13,163.913,79.13z"/>
	<path id="XMLID_1565_" style="fill:#595852;" d="M11.304,22.609h22.609v22.608h-2.609c-11.046,0-20-8.954-20-20
		C11.304,25.217,11.304,22.609,11.304,22.609z"/>
	<path id="XMLID_2062_" style="fill:#595852;" d="M226.087,22.609v22.608h2.609c11.046,0,20-8.954,20-20v-2.608H226.087z"/>
</g>
<g>
</g>
<g>
</g>
<g>
</g>
<g>
</g>
<g>
</g>
<g>
</g>
<g>
</g>
<g>
</g>
<g>
</g>
<g>
</g>
<g>
</g>
<g>
</g>
<g>
</g>
<g>
</g>
<g>
</g>
</svg>
